<?xml version="1.0" standalone="no"?>
<!DOCTYPE svg PUBLIC "-//W3C//DTD SVG 20010904//EN"
 "http://www.w3.org/TR/2001/REC-SVG-20010904/DTD/svg10.dtd">
<svg version="1.0" xmlns="http://www.w3.org/2000/svg"
 width="128.000000pt" height="128.000000pt" viewBox="0 0 128.000000 128.000000"
 preserveAspectRatio="xMidYMid meet">

<g transform="translate(0.000000,128.000000) scale(0.100000,-0.100000)"
fill="#000000" stroke="none">
<path d="M494 1243 c-73 -17 -210 -85 -206 -102 1 -7 -2 -10 -8 -6 -14 9 -132
-105 -125 -122 2 -8 0 -11 -5 -8 -20 12 -101 -150 -115 -230 -4 -22 -9 -48
-12 -58 -3 -10 14 2 37 27 25 27 71 60 111 80 37 19 65 37 61 41 -3 3 0 4 8 1
8 -3 44 3 80 13 l64 18 17 68 c30 118 97 234 159 278 29 20 18 20 -66 0z"/>
<path d="M1200 905 c0 -5 5 -17 10 -25 5 -8 10 -10 10 -5 0 6 -5 17 -10 25 -5
8 -10 11 -10 5z"/>
<path d="M1247 553 c-5 -7 -5 -18 -2 -23 4 -6 3 -10 -2 -9 -23 4 -35 -2 -29
-17 3 -8 2 -13 -3 -10 -5 3 -34 -9 -65 -28 -49 -29 -202 -86 -231 -86 -6 0
-19 -30 -29 -67 -25 -96 -82 -209 -127 -254 -32 -32 -36 -39 -19 -39 33 0 167
46 215 74 47 28 58 39 28 30 -15 -5 -15 -4 -3 4 8 6 18 8 22 6 9 -6 112 76
105 83 -3 2 9 17 25 33 17 17 26 35 22 41 -4 7 -3 9 4 5 21 -13 109 207 100
252 -3 12 -6 14 -11 5z"/>
</g>
</svg>
